<svg width="100" height="71" viewBox="0 0 100 71" fill="none" xmlns="http://www.w3.org/2000/svg">
<ellipse cx="3.23047" cy="2.62469" rx="2.5" ry="2.62469" fill="#FF6E1A"/>
<ellipse cx="3.23047" cy="46.4091" rx="2.5" ry="2.62469" fill="#FF6E1A"/>
<ellipse cx="40.6206" cy="2.62469" rx="2.5" ry="2.62469" fill="#FF6E1A"/>
<ellipse cx="40.6206" cy="46.4091" rx="2.5" ry="2.62469" fill="#FF6E1A"/>
<ellipse cx="78.0105" cy="2.62469" rx="2.5" ry="2.62469" fill="#FF6E1A"/>
<ellipse cx="78.0105" cy="46.4091" rx="2.5" ry="2.62469" fill="#FF6E1A"/>
<ellipse cx="3.23047" cy="24.5168" rx="2.5" ry="2.62469" fill="#FF6E1A"/>
<ellipse cx="3.23047" cy="68.301" rx="2.5" ry="2.62469" fill="#FF6E1A"/>
<ellipse cx="40.6206" cy="24.5168" rx="2.5" ry="2.62469" fill="#FF6E1A"/>
<ellipse cx="40.6206" cy="68.301" rx="2.5" ry="2.62469" fill="#FF6E1A"/>
<ellipse cx="78.0105" cy="24.5168" rx="2.5" ry="2.62469" fill="#FF6E1A"/>
<ellipse cx="78.0105" cy="68.301" rx="2.5" ry="2.62469" fill="#FF6E1A"/>
<ellipse cx="21.9255" cy="2.62469" rx="2.5" ry="2.62469" fill="#FF6E1A"/>
<ellipse cx="21.9255" cy="46.4091" rx="2.5" ry="2.62469" fill="#FF6E1A"/>
<ellipse cx="59.3154" cy="2.62469" rx="2.5" ry="2.62469" fill="#FF6E1A"/>
<ellipse cx="59.3154" cy="46.4091" rx="2.5" ry="2.62469" fill="#FF6E1A"/>
<ellipse cx="96.7056" cy="2.62469" rx="2.5" ry="2.62469" fill="#FF6E1A"/>
<ellipse cx="96.7056" cy="46.4091" rx="2.5" ry="2.62469" fill="#FF6E1A"/>
<ellipse cx="21.9255" cy="24.5168" rx="2.5" ry="2.62469" fill="#FF6E1A"/>
<ellipse cx="21.9255" cy="68.301" rx="2.5" ry="2.62469" fill="#FF6E1A"/>
<ellipse cx="59.3154" cy="24.5168" rx="2.5" ry="2.62469" fill="#FF6E1A"/>
<ellipse cx="59.3154" cy="68.301" rx="2.5" ry="2.62469" fill="#FF6E1A"/>
<ellipse cx="96.7056" cy="24.5168" rx="2.5" ry="2.62469" fill="#FF6E1A"/>
<ellipse cx="96.7056" cy="68.301" rx="2.5" ry="2.62469" fill="#FF6E1A"/>
</svg>
